<?xml version="1.0" encoding="UTF-8"?>
<svg id="Layer_2" xmlns="http://www.w3.org/2000/svg" viewBox="0 0 26.98 47.46">
  <defs>
    <style>
      .cls-1 {
        fill: none;
        stroke: #fff8de;
        stroke-linejoin: round;
        stroke-width: 3px;
      }
    </style>
  </defs>
  <g id="Layer_3">
    <g id="_x30_1._Facebook">
      <path id="Icon" class="cls-1" d="M8.18,26.59H2.67c-.89,0-1.17-.33-1.17-1.17v-6.73c0-.89.33-1.17,1.17-1.17h5.51v-4.9c0-2.23.39-4.34,1.5-6.29,1.17-2,2.84-3.34,4.95-4.12,1.39-.5,2.78-.72,4.28-.72h5.45c.78,0,1.11.33,1.11,1.11v6.34c0,.78-.33,1.11-1.11,1.11-1.5,0-3,0-4.51.06-1.5,0-2.28.72-2.28,2.28-.06,1.67,0,3.28,0,5.01h6.45c.89,0,1.22.33,1.22,1.22v6.73c0,.89-.28,1.17-1.22,1.17h-6.45v18.14c0,.95-.28,1.28-1.28,1.28h-6.96c-.83,0-1.17-.33-1.17-1.17v-18.2h0Z"/>
    </g>
  </g>
</svg>