<?xml version="1.0" encoding="UTF-8"?>
<svg id="Layer_2" xmlns="http://www.w3.org/2000/svg" viewBox="0 0 44.21 44.21">
  <defs>
    <style>
      .cls-1 {
        fill: #fff8de;
      }
    </style>
  </defs>
  <g id="Layer_3">
    <g>
      <path class="cls-1" d="M32.24,0H11.97C5.37,0,0,5.37,0,11.97v20.28c0,6.6,5.37,11.97,11.97,11.97h20.28c6.6,0,11.97-5.37,11.97-11.97V11.97c0-6.6-5.37-11.97-11.97-11.97ZM41.62,32.24c0,5.17-4.21,9.37-9.38,9.37H11.97c-5.17,0-9.38-4.21-9.38-9.37V11.97C2.59,6.8,6.8,2.59,11.97,2.59h20.28c5.17,0,9.37,4.21,9.37,9.38v20.28Z"/>
      <path class="cls-1" d="M22.1,10.02c-6.67,0-12.09,5.42-12.09,12.09s5.42,12.09,12.09,12.09,12.09-5.42,12.09-12.09-5.42-12.09-12.09-12.09ZM22.1,31.6c-5.24,0-9.5-4.26-9.5-9.5s4.26-9.5,9.5-9.5,9.5,4.26,9.5,9.5-4.26,9.5-9.5,9.5Z"/>
      <path class="cls-1" d="M34.48,5.72c-1.97,0-3.57,1.6-3.57,3.57s1.6,3.57,3.57,3.57,3.57-1.6,3.57-3.57-1.6-3.57-3.57-3.57ZM34.48,10.28c-.54,0-.98-.44-.98-.98s.44-.98.98-.98.98.44.98.98-.44.98-.98.98Z"/>
    </g>
  </g>
</svg>